<svg id="Group_10" data-name="Group 10" xmlns="http://www.w3.org/2000/svg" xmlns:xlink="http://www.w3.org/1999/xlink" width="180" height="114" viewBox="0 0 180 114">
  <defs>
    <clipPath id="clip-path">
      <rect id="Rectangle_2" data-name="Rectangle 2" width="180" height="114" fill="none"/>
    </clipPath>
  </defs>
  <g id="Group_3" data-name="Group 3" clip-path="url(#clip-path)">
    <path id="Path_45" data-name="Path 45" d="M31.211,84.863q0,4.636.425,9.157L22.9,96.492q-.291-3.754-.291-7.592a97.725,97.725,0,0,1,1.475-16.974l-12.714,3.6a103.172,103.172,0,0,0-1.021,14.523q0,4.522.385,8.946L.026,95.959Q0,94.855,0,93.746a100.969,100.969,0,0,1,13.3-50.4h8.331a100,100,0,0,0-9.039,25.269l12.988-3.678a95.66,95.66,0,0,1,3.2-10.194h7.181a96.946,96.946,0,0,0-4.753,30.12" transform="translate(0 -30.278)" fill="#f16944"/>
    <path id="Path_46" data-name="Path 46" d="M58.964,4.29A4.185,4.185,0,0,1,54.9,8.584q-.133,0-.265-.009A4.2,4.2,0,0,1,50.841,4.29,4.18,4.18,0,0,1,54.9,0a4.091,4.091,0,0,1,3.86,2.952,4.485,4.485,0,0,1,.2,1.339" transform="translate(-36.335)" fill="#4976ba"/>
    <path id="Path_47" data-name="Path 47" d="M112.144,58.913a1.967,1.967,0,1,1,1.964,2.075,2.022,2.022,0,0,1-1.964-2.075" transform="translate(-80.147 -39.701)" fill="#c05098"/>
    <path id="Path_48" data-name="Path 48" d="M285.173,116.153a2.823,2.823,0,0,1-.491.226c.074-.033.148-.066.223-.1.048-.021.094-.042.143-.066s.086-.039.126-.057" transform="translate(-203.457 -81.133)" fill="#040504"/>
    <path id="Path_49" data-name="Path 49" d="M269.821,166.62l.017-.127-.026.253c0-.042.006-.084.009-.127" transform="translate(-192.83 -116.295)" fill="#040504"/>
    <path id="Path_50" data-name="Path 50" d="M269.912,29.859c.029-.057.054-.112.08-.166-.009.06-.017.121-.023.181Z" transform="translate(-192.901 -20.741)" fill="#040504"/>
    <path id="Path_51" data-name="Path 51" d="M269.992,29.693c-.009.06-.017.121-.023.181l-.057-.015c.029-.057.054-.112.08-.166" transform="translate(-192.901 -20.741)" fill="#040504"/>
    <path id="Path_52" data-name="Path 52" d="M274.491,55.818c-.049.024-.094.045-.143.066-.074.036-.148.069-.223.1a2.824,2.824,0,0,0,.491-.226c-.04.018-.083.039-.126.057m0,0c-.049.024-.094.045-.143.066-.074.036-.148.069-.223.1a2.824,2.824,0,0,0,.491-.226c-.04.018-.083.039-.126.057m-4.579-25.959.057.015c.006-.06.014-.121.023-.181-.026.054-.051.109-.08.166m4.579,25.959c-.049.024-.094.045-.143.066-.074.036-.148.069-.223.1a2.824,2.824,0,0,0,.491-.226c-.04.018-.083.039-.126.057m0,0c-.049.024-.094.045-.143.066-.074.036-.148.069-.223.1a2.824,2.824,0,0,0,.491-.226c-.04.018-.083.039-.126.057m0,0c-.049.024-.094.045-.143.066-.074.036-.148.069-.223.1a2.824,2.824,0,0,0,.491-.226c-.04.018-.083.039-.126.057" transform="translate(-192.901 -20.741)" fill="#040504"/>
    <path id="Path_53" data-name="Path 53" d="M285.173,116.153a2.823,2.823,0,0,1-.491.226c.074-.033.148-.066.223-.1.048-.021.094-.042.143-.066s.086-.039.126-.057" transform="translate(-203.457 -81.133)" fill="#040504"/>
    <path id="Path_54" data-name="Path 54" d="M285.173,116.153a2.823,2.823,0,0,1-.491.226c.074-.033.148-.066.223-.1.048-.021.094-.042.143-.066s.086-.039.126-.057" transform="translate(-203.457 -81.133)" fill="#040504"/>
    <path id="Path_55" data-name="Path 55" d="M285.173,116.153a2.823,2.823,0,0,1-.491.226c.074-.033.148-.066.223-.1.048-.021.094-.042.143-.066s.086-.039.126-.057" transform="translate(-203.457 -81.133)" fill="#040504"/>
    <path id="Path_56" data-name="Path 56" d="M257.522,62.491a82.175,82.175,0,0,0,11,21.123l-6.246,1.77a82.174,82.174,0,0,1-7.2-14.366l-.086-.217c-.017-.048-.034-.1-.051-.142A2.581,2.581,0,0,0,252.575,69a2.629,2.629,0,0,0-.442.039h0a2.667,2.667,0,0,0-2.091,2.192.244.244,0,0,1-.006.045c0,.015,0,.027-.006.042l-.017.127c0,.042-.009.084-.009.127a.241.241,0,0,0,0,.045c0,.021,0,.042,0,.066-.18,1.8-.274,3.627-.274,5.475a55.461,55.461,0,0,0,.5,7.432h-6.131a84.941,84.941,0,0,1-1.934-15.25q-.06-1.583-.06-3.178,0-2.754.171-5.463a84.091,84.091,0,0,1,7.766-30.461l.057.015,2.8.793,1.783.5q-1.023,2.3-1.835,4.718A54.846,54.846,0,0,0,250.078,50.8c-.04.721-.063,1.447-.074,2.177v.066c0,.042,0,.081,0,.124v.081a3.475,3.475,0,0,0,.745,2.083,3.122,3.122,0,0,0,2.462,1.221,2.907,2.907,0,0,0,.514-.045,2.788,2.788,0,0,0,.522-.139,2.823,2.823,0,0,0,.491-.226.062.062,0,0,0,.014-.009c.251-.115.5-.235.742-.356a75.989,75.989,0,0,0,16.685-11.047l2.294,4.2a77.445,77.445,0,0,1-16.948,13.555" transform="translate(-173.019 -21.125)" fill="#ea4858"/>
    <path id="Path_57" data-name="Path 57" d="M297.023,62.9a3.309,3.309,0,0,1-2.728,3.329,2.858,2.858,0,0,1-.456.036,3.371,3.371,0,1,1,3.181-3.552c0,.06,0,.124,0,.187" transform="translate(-207.724 -41.584)" fill="#f16944"/>
    <path id="Path_58" data-name="Path 58" d="M285.173,116.153a2.823,2.823,0,0,1-.491.226c.074-.033.148-.066.223-.1.048-.021.094-.042.143-.066s.086-.039.126-.057" transform="translate(-203.457 -81.133)" fill="#040504"/>
    <path id="Path_59" data-name="Path 59" d="M269.838,166.493l-.026.253c0-.042.006-.084.009-.127l.017-.127" transform="translate(-192.83 -116.295)" fill="#040504"/>
    <path id="Path_60" data-name="Path 60" d="M369.912,137.087a58.246,58.246,0,0,1-1.253,12.066c-.006.03-.011.06-.017.087a9.541,9.541,0,0,1-8.237,7.571c-.285.027-.573.042-.865.042a8.761,8.761,0,0,1-1.387-.109,9.613,9.613,0,0,1-7.806-7.948c-.017-.106-.034-.214-.051-.323a58.98,58.98,0,0,1-.051-18.612h5.86a58.889,58.889,0,0,0-.7,8.246c0,.3-.006.588-.006.883,0,1.286.042,2.555.123,3.823a4.028,4.028,0,0,0,8.032.072c.189-1.908.285-3.86.285-5.8q0-2.935-.285-5.795h6.077c.188,1.9.285,3.838.285,5.795" transform="translate(-249.805 -90.709)" fill="#c05098"/>
    <path id="Path_61" data-name="Path 61" d="M469.141,75.138a16.63,16.63,0,0,0-12.229,14.7c-.014.148-.026.292-.037.44q-.342,3.975-.425,8.026-.03,1.28-.029,2.569,0,2.953.137,5.87.086,1.759.217,3.509h-5.341c-.188-.271-.371-.546-.553-.82a117.568,117.568,0,0,1-10.06-18.37,123.039,123.039,0,0,0,1.669,19.19h-6.448a124.071,124.071,0,0,1,.613-30.162c.054-.38.108-.76.168-1.137h4.605a118.129,118.129,0,0,0,9.341,19.127A122.781,122.781,0,0,1,452.084,84l.077-.507a16.908,16.908,0,0,1,7.7-11.584,15.208,15.208,0,0,1,7.88-2.279Z" transform="translate(-311.174 -48.639)" fill="#4976ba"/>
    <line id="Line_4" data-name="Line 4" x1="0.051" transform="translate(130.254 30.32)" fill="#040504"/>
    <path id="Path_62" data-name="Path 62" d="M59.914,258.6c-.023.115-.046.226-.066.341-.046-.115-.091-.226-.137-.341Z" transform="translate(-42.674 -180.634)" fill="#040504"/>
    <path id="Path_63" data-name="Path 63" d="M93.365,258.463h-.034a.521.521,0,0,1,.023-.06c0,.021.009.039.011.06" transform="translate(-66.702 -180.495)" fill="#040504"/>
    <path id="Path_64" data-name="Path 64" d="M93.365,258.463h-.034a.521.521,0,0,1,.023-.06c0,.021.009.039.011.06" transform="translate(-66.702 -180.495)" fill="#040504"/>
    <path id="Path_65" data-name="Path 65" d="M59.914,258.6c-.023.115-.046.226-.066.341-.046-.115-.091-.226-.137-.341Z" transform="translate(-42.674 -180.634)" fill="#040504"/>
    <path id="Path_66" data-name="Path 66" d="M93.365,258.463h-.034a.521.521,0,0,1,.023-.06c0,.021.009.039.011.06" transform="translate(-66.702 -180.495)" fill="#040504"/>
    <path id="Path_67" data-name="Path 67" d="M59.914,258.6c-.023.115-.046.226-.066.341-.046-.115-.091-.226-.137-.341Z" transform="translate(-42.674 -180.634)" fill="#040504"/>
    <path id="Path_68" data-name="Path 68" d="M93.365,258.463h-.034a.521.521,0,0,1,.023-.06c0,.021.009.039.011.06" transform="translate(-66.702 -180.495)" fill="#040504"/>
    <path id="Path_69" data-name="Path 69" d="M53.728,293.4q-3.608-.253-7.244-.386a183.718,183.718,0,0,0-1.458-22.064q-2.294,5.355-4.243,10.9c-.305.859-.6,1.722-.89,2.587H36.806q-.522-1.565-1.073-3.111-1.9-5.346-4.12-10.516A183.437,183.437,0,0,0,30.138,293q-3.638.127-7.247.374a182.386,182.386,0,0,1,3.315-34.018c.046-.25.1-.5.146-.751H33.4c.046.115.091.226.137.341q2.581,6.58,4.659,13.426,2.127-7.019,4.8-13.766h7.278c.057.289.114.576.168.865A182.434,182.434,0,0,1,53.728,293.4" transform="translate(-16.36 -180.634)" fill="#c05098"/>
    <path id="Path_70" data-name="Path 70" d="M93.365,258.463h-.034a.521.521,0,0,1,.023-.06c0,.021.009.039.011.06" transform="translate(-66.702 -180.495)" fill="#040504"/>
    <line id="Line_5" data-name="Line 5" x1="0.203" transform="translate(17.036 77.969)" fill="#040504"/>
    <path id="Path_71" data-name="Path 71" d="M540.5,267.9h-5.438a109.014,109.014,0,0,0-11.19,29.879l6.822,1.933a110.356,110.356,0,0,1,2.2-11h8.848l4.8,11.671,6.551-1.854Zm-6.214,15.82q1.1-3.645,2.454-7.17l2.947,7.17Z" transform="translate(-374.405 -187.13)" fill="#ea4858"/>
    <path id="Path_72" data-name="Path 72" d="M582.1,267.847h-.023a.062.062,0,0,1,.011-.024Z" transform="translate(-415.999 -187.074)" fill="#ea4858"/>
    <path id="Path_73" data-name="Path 73" d="M582.086,267.823l.011.024h-.023a.062.062,0,0,1,.011-.024" transform="translate(-415.999 -187.074)" fill="#ea4858"/>
    <path id="Path_74" data-name="Path 74" d="M147.411,113.856h-5.438a109.015,109.015,0,0,0-11.19,29.879l6.822,1.933a110.34,110.34,0,0,1,2.2-11h8.848l4.8,11.671,6.551-1.854Zm-6.214,15.82q1.1-3.645,2.454-7.17l2.947,7.17Z" transform="translate(-93.468 -79.528)" fill="#ffea49"/>
    <path id="Path_75" data-name="Path 75" d="M189.006,113.8h-.023a.062.062,0,0,1,.011-.024Z" transform="translate(-135.063 -79.473)" fill="#ffea49"/>
    <path id="Path_76" data-name="Path 76" d="M188.994,113.776l.011.024h-.023a.062.062,0,0,1,.011-.024" transform="translate(-135.063 -79.473)" fill="#ffea49"/>
    <path id="Path_77" data-name="Path 77" d="M545.085,106.322h-5.438a109.017,109.017,0,0,0-11.19,29.878l6.822,1.933a110.316,110.316,0,0,1,2.2-11h8.848l4.8,11.671,6.551-1.854Zm-6.214,15.819q1.1-3.645,2.454-7.17l2.947,7.17Z" transform="translate(-377.679 -74.266)" fill="#ea4858"/>
    <path id="Path_78" data-name="Path 78" d="M586.68,106.265h-.023a.062.062,0,0,1,.011-.024Z" transform="translate(-419.274 -74.209)" fill="#ea4858"/>
    <path id="Path_79" data-name="Path 79" d="M586.668,106.241l.011.024h-.023a.065.065,0,0,1,.011-.024" transform="translate(-419.274 -74.209)" fill="#ea4858"/>
    <path id="Path_80" data-name="Path 80" d="M336.9,265.67h-5.438a109.013,109.013,0,0,0-11.19,29.879l6.822,1.933a110.339,110.339,0,0,1,2.2-11h8.848l4.8,11.671,6.551-1.854Zm-6.214,15.82q1.1-3.645,2.454-7.17l2.947,7.17Z" transform="translate(-228.892 -185.571)" fill="#4976ba"/>
    <path id="Path_81" data-name="Path 81" d="M378.494,265.614h-.023a.062.062,0,0,1,.011-.024Z" transform="translate(-270.487 -185.515)" fill="#4976ba"/>
    <path id="Path_82" data-name="Path 82" d="M378.482,265.59l.011.024h-.023a.062.062,0,0,1,.011-.024" transform="translate(-270.487 -185.515)" fill="#4976ba"/>
    <path id="Path_83" data-name="Path 83" d="M152.713,265.67h-5.438a109.015,109.015,0,0,0-11.19,29.879l6.822,1.933a110.344,110.344,0,0,1,2.2-11h8.848l4.8,11.671,6.551-1.854ZM146.5,281.49q1.1-3.645,2.454-7.17l2.947,7.17Z" transform="translate(-97.258 -185.571)" fill="#f16944"/>
    <path id="Path_84" data-name="Path 84" d="M194.308,265.614h-.023a.062.062,0,0,1,.011-.024Z" transform="translate(-138.852 -185.515)" fill="#f16944"/>
    <path id="Path_85" data-name="Path 85" d="M194.3,265.59l.011.024h-.023a.059.059,0,0,1,.012-.024" transform="translate(-138.852 -185.515)" fill="#f16944"/>
    <line id="Line_6" data-name="Line 6" x1="0.011" y1="0.024" transform="translate(153.381 80.748)" fill="#040504"/>
    <path id="Path_86" data-name="Path 86" d="M249.488,275.68a18.889,18.889,0,0,1-2.3,9.09,17.1,17.1,0,0,1-14.1,9.072c-.265.015-.534.021-.8.021a16.279,16.279,0,0,1-3.815-.449V274.5h4.619v13.287l.114-.021c.1-.018.191-.039.288-.057a.98.98,0,0,0,.1-.021c.108-.024.22-.048.328-.075l.214-.054a11.214,11.214,0,0,0,6.209-4.429s0-.006,0-.009a12.393,12.393,0,0,0,.71-12.892,11.292,11.292,0,0,0-7.113-5.635l-.148-.036c-.108-.027-.217-.051-.325-.069-.077-.018-.154-.033-.231-.048a16.426,16.426,0,0,0-9.589,1.04l-3.01-3.181a16.891,16.891,0,0,1,7.826-4.351,16.488,16.488,0,0,1,3.82-.449,17.022,17.022,0,0,1,14.711,8.75,0,0,0,0,1,0,0,18.874,18.874,0,0,1,2.491,9.428" transform="translate(-157.685 -179.864)" fill="#ea4858"/>
    <path id="Path_87" data-name="Path 87" d="M444.21,275.68a18.888,18.888,0,0,1-2.3,9.09,17.1,17.1,0,0,1-14.1,9.072c-.265.015-.534.021-.8.021a16.279,16.279,0,0,1-3.815-.449V274.5h4.619v13.287l.114-.021c.1-.018.191-.039.288-.057a.982.982,0,0,0,.1-.021c.108-.024.22-.048.328-.075l.214-.054a11.214,11.214,0,0,0,6.208-4.429s0-.006,0-.009a12.393,12.393,0,0,0,.71-12.892,11.292,11.292,0,0,0-7.113-5.635l-.148-.036c-.108-.027-.217-.051-.325-.069-.077-.018-.154-.033-.231-.048a16.426,16.426,0,0,0-9.59,1.04l-3.01-3.181a16.891,16.891,0,0,1,7.826-4.351,16.488,16.488,0,0,1,3.82-.449,17.022,17.022,0,0,1,14.711,8.75,0,0,0,0,1,0,0,18.874,18.874,0,0,1,2.491,9.428" transform="translate(-296.85 -179.864)" fill="#ffea49"/>
    <path id="Path_88" data-name="Path 88" d="M563.742,240.5c2.416-4.421-3.451-4.421-1.035,0-2.416-4.421-5.349.947-.518.947-4.831,0-1.9,5.368.518.947-2.416,4.421,3.451,4.421,1.035,0,2.416,4.421,5.349-.947.518-.947,4.831,0,1.9-5.368-.518-.947" transform="translate(-399.928 -165.676)" fill="#4976ba"/>
  </g>
</svg>
