<svg xmlns="http://www.w3.org/2000/svg" width="14" height="16" viewBox="0 0 14 16">
  <g id="Icon_ionic-ios-pause" data-name="Icon ionic-ios-pause" transform="translate(0)">
    <path id="Path_252" data-name="Path 252" d="M7.965,19H4.447A.425.425,0,0,1,4,18.6V3.4A.425.425,0,0,1,4.447,3H7.965a.425.425,0,0,1,.447.4V18.6A.425.425,0,0,1,7.965,19Z" transform="translate(-4 -3)"/>
    <path id="Path_253" data-name="Path 253" d="M13.465,19H9.947a.425.425,0,0,1-.447-.4V3.4A.425.425,0,0,1,9.947,3h3.518a.425.425,0,0,1,.447.4V18.6A.425.425,0,0,1,13.465,19Z" transform="translate(0.088 -3)"/>
  </g>
</svg>
