<svg xmlns="http://www.w3.org/2000/svg" width="20" height="20" viewBox="0 0 20 20">
  <path id="_031.전화" data-name="031.전화" d="M6.721,4.5l2.1,2.1L7.683,7.745,6.512,8.916l.943,1.359a23.242,23.242,0,0,0,2.778,3.333,24.388,24.388,0,0,0,3.334,2.778l1.359.942L16.1,16.158l1.151-1.141,2.1,2.1-.05.05-2.937,2.937a23.457,23.457,0,0,1-2.242-1.1,24.2,24.2,0,0,1-5.288-3.988A23.888,23.888,0,0,1,4.845,9.729C4.439,9,4.072,8.241,3.744,7.487L6.681,4.551l.05-.05m0-2.391a1.016,1.016,0,0,0-.7.288l-.754.754L2.335,6.089a1.965,1.965,0,0,0-.446,2.133A27.233,27.233,0,0,0,3.1,10.7a25.8,25.8,0,0,0,4.326,5.724,26.108,26.108,0,0,0,5.725,4.325,27.232,27.232,0,0,0,2.48,1.21,1.893,1.893,0,0,0,.724.149,2.008,2.008,0,0,0,1.409-.585L20.7,18.589l.754-.754a.988.988,0,0,0,0-1.4l-3.512-3.512a.974.974,0,0,0-.7-.288,1.016,1.016,0,0,0-.7.288l-1.845,1.845a21.769,21.769,0,0,1-3.066-2.55,21.767,21.767,0,0,1-2.55-3.066l1.845-1.845a.988.988,0,0,0,0-1.4L7.405,2.4a.974.974,0,0,0-.7-.288Z" transform="translate(-1.744 -2.11)" fill="#333"/>
</svg>
