<svg xmlns="http://www.w3.org/2000/svg" width="24" height="24" viewBox="0 0 24 24">
  <path id="Icon_weather-stars" data-name="Icon weather-stars" d="M6.444,20.1A2.925,2.925,0,0,0,8.5,19.157a2.968,2.968,0,0,0,.847-2.112,2.957,2.957,0,0,0,.835,2.112,2.925,2.925,0,0,0,2.056.943,2.925,2.925,0,0,0-2.056.943,2.957,2.957,0,0,0-.835,2.112A2.917,2.917,0,0,0,8.5,21.042,2.925,2.925,0,0,0,6.444,20.1Zm2.9-9.052a5.705,5.705,0,0,0,4-1.848,5.782,5.782,0,0,0,1.645-4.124A5.782,5.782,0,0,0,16.637,9.2a5.761,5.761,0,0,0,4.012,1.848,5.739,5.739,0,0,0-2.854.893,6.019,6.019,0,0,0-2.056,2.175,5.953,5.953,0,0,0-.748,2.929,5.811,5.811,0,0,0-1.645-4.136A5.668,5.668,0,0,0,9.347,11.048Zm4.137,13.54A4.274,4.274,0,0,0,16.5,23.2,4.35,4.35,0,0,0,17.734,20.1,4.35,4.35,0,0,0,18.967,23.2a4.246,4.246,0,0,0,3,1.383,4.246,4.246,0,0,0-3,1.383,4.35,4.35,0,0,0-1.234,3.105,4.473,4.473,0,0,0-4.249-4.488Zm8.486-5.959a4.246,4.246,0,0,0,3-1.383,4.347,4.347,0,0,0,1.221-3.118,4.35,4.35,0,0,0,1.234,3.105,4.274,4.274,0,0,0,3.016,1.383A4.274,4.274,0,0,0,27.428,20,4.35,4.35,0,0,0,26.195,23.1,4.392,4.392,0,0,0,24.974,20,4.283,4.283,0,0,0,21.97,18.629Z" transform="translate(-6.444 -5.076)"/>
</svg>
