<svg xmlns="http://www.w3.org/2000/svg" width="30" height="36" viewBox="0 0 30 36">
  <path id="Icon_simple-tiktok" data-name="Icon simple-tiktok" d="M18.125.03C20.009,0,21.88.015,23.75,0a9.547,9.547,0,0,0,2.518,6.255,9.941,9.941,0,0,0,6.1,2.685v6.045a14.881,14.881,0,0,1-6.043-1.455,17.606,17.606,0,0,1-2.331-1.4c-.014,4.38.014,8.76-.029,13.125a11.78,11.78,0,0,1-1.942,5.91,10.614,10.614,0,0,1-8.5,4.815A10.158,10.158,0,0,1,7.65,34.44,11.363,11.363,0,0,1,2.4,25.875c-.029-.75-.043-1.5-.014-2.235A11.418,11.418,0,0,1,6.1,16.2a10.406,10.406,0,0,1,8.849-2.58c.029,2.22-.058,4.44-.058,6.66a4.86,4.86,0,0,0-4.345.555A5.184,5.184,0,0,0,8.586,23.46a6.193,6.193,0,0,0-.2,2.415A4.953,4.953,0,0,0,13.42,30.18a4.8,4.8,0,0,0,3.985-2.415,3.549,3.549,0,0,0,.59-1.59c.144-2.685.086-5.355.1-8.04.014-6.045-.014-12.075.029-18.1Z" transform="translate(-2.369)" fill="#fff"/>
</svg>
