<svg xmlns="http://www.w3.org/2000/svg" width="32" height="30" viewBox="0 0 32 30">
  <path id="Icon_awesome-twitter" data-name="Icon awesome-twitter" d="M28.711,10.857c.02.328.02.656.02.984,0,10.008-6.6,21.539-18.66,21.539A16.786,16.786,0,0,1,0,29.982a11.773,11.773,0,0,0,1.584.094,12.068,12.068,0,0,0,8.142-3.234,6.765,6.765,0,0,1-6.132-5.25,7.192,7.192,0,0,0,1.239.117,6.067,6.067,0,0,0,1.726-.258c-3.005-.7-5.259-3.75-5.259-7.43v-.094a5.955,5.955,0,0,0,2.964.961,7.928,7.928,0,0,1-2.924-6.3,8.417,8.417,0,0,1,.893-3.82,17.958,17.958,0,0,0,13.523,7.922,9.816,9.816,0,0,1-.162-1.734c0-4.172,2.924-7.57,6.558-7.57a6.172,6.172,0,0,1,4.792,2.391,11.92,11.92,0,0,0,4.162-1.828,7.454,7.454,0,0,1-2.883,4.172A11.794,11.794,0,0,0,32,6.943a15.477,15.477,0,0,1-3.289,3.914Z" transform="translate(0 -3.381)" fill="#fff"/>
</svg>
