<svg id="Group_2" data-name="Group 2" xmlns="http://www.w3.org/2000/svg" xmlns:xlink="http://www.w3.org/1999/xlink" width="282" height="50" viewBox="0 0 282 50">
  <defs>
    <clipPath id="clip-path">
      <rect id="Rectangle_1" data-name="Rectangle 1" width="282" height="50" fill="none"/>
    </clipPath>
  </defs>
  <g id="Group_1" data-name="Group 1" clip-path="url(#clip-path)">
    <path id="Path_1" data-name="Path 1" d="M24.519,73.414a65.508,65.508,0,0,0,.334,6.631l-6.861,1.791q-.229-2.719-.229-5.5a65.4,65.4,0,0,1,1.159-12.293l-9.988,2.6a68.989,68.989,0,0,0-.8,10.518q0,3.275.3,6.479L.02,81.449q-.02-.8-.02-1.6a68.768,68.768,0,0,1,10.45-36.5h6.545a68.827,68.827,0,0,0-7.1,18.3l10.2-2.664A65.4,65.4,0,0,1,22.612,51.6h5.642a65.215,65.215,0,0,0-3.734,21.814" transform="translate(0 -33.881)" fill="#121212"/>
    <path id="Path_2" data-name="Path 2" d="M57.222,3.107a3.153,3.153,0,0,1-3.192,3.109q-.1,0-.208-.007a3.144,3.144,0,0,1-2.981-3.1A3.149,3.149,0,0,1,54.031,0a3.185,3.185,0,0,1,3.033,2.138,3.015,3.015,0,0,1,.159.97" transform="translate(-39.445)" fill="#121212"/>
    <path id="Path_3" data-name="Path 3" d="M112.144,58.341a1.543,1.543,0,1,1,1.543,1.5,1.523,1.523,0,0,1-1.543-1.5" transform="translate(-87.007 -44.427)" fill="#121212"/>
    <path id="Path_4" data-name="Path 4" d="M285.068,116.152a2.31,2.31,0,0,1-.386.164c.058-.024.117-.048.175-.074.038-.015.074-.031.112-.048s.067-.028.1-.041" transform="translate(-220.872 -90.789)" fill="#040504"/>
    <path id="Path_5" data-name="Path 5" d="M269.819,166.584l.013-.092-.02.183c0-.031,0-.061.007-.092" transform="translate(-209.335 -130.137)" fill="#040504"/>
    <path id="Path_6" data-name="Path 6" d="M269.912,29.812c.022-.041.043-.081.063-.12-.007.044-.013.087-.018.131Z" transform="translate(-209.412 -23.209)" fill="#040504"/>
    <path id="Path_7" data-name="Path 7" d="M269.975,29.692c-.007.044-.013.087-.018.131l-.045-.011c.022-.041.043-.081.063-.12" transform="translate(-209.412 -23.209)" fill="#040504"/>
    <path id="Path_8" data-name="Path 8" d="M273.51,48.613c-.038.017-.074.033-.112.048-.058.026-.117.05-.175.074a2.311,2.311,0,0,0,.386-.164c-.031.013-.065.028-.1.041m0,0c-.038.017-.074.033-.112.048-.058.026-.117.05-.175.074a2.311,2.311,0,0,0,.386-.164c-.031.013-.065.028-.1.041m-3.6-18.8.045.011c0-.044.011-.087.018-.131-.02.039-.04.079-.063.12m3.6,18.8c-.038.017-.074.033-.112.048-.058.026-.117.05-.175.074a2.311,2.311,0,0,0,.386-.164c-.031.013-.065.028-.1.041m0,0c-.038.017-.074.033-.112.048-.058.026-.117.05-.175.074a2.311,2.311,0,0,0,.386-.164c-.031.013-.065.028-.1.041m0,0c-.038.017-.074.033-.112.048-.058.026-.117.05-.175.074a2.311,2.311,0,0,0,.386-.164c-.031.013-.065.028-.1.041" transform="translate(-209.412 -23.209)" fill="#040504"/>
    <path id="Path_9" data-name="Path 9" d="M285.068,116.152a2.31,2.31,0,0,1-.386.164c.058-.024.117-.048.175-.074.038-.015.074-.031.112-.048s.067-.028.1-.041" transform="translate(-220.872 -90.789)" fill="#040504"/>
    <path id="Path_10" data-name="Path 10" d="M285.068,116.152a2.31,2.31,0,0,1-.386.164c.058-.024.117-.048.175-.074.038-.015.074-.031.112-.048s.067-.028.1-.041" transform="translate(-220.872 -90.789)" fill="#040504"/>
    <path id="Path_11" data-name="Path 11" d="M285.068,116.152a2.31,2.31,0,0,1-.386.164c.058-.024.117-.048.175-.074.038-.015.074-.031.112-.048s.067-.028.1-.041" transform="translate(-220.872 -90.789)" fill="#040504"/>
    <path id="Path_12" data-name="Path 12" d="M254.214,53.6a58.028,58.028,0,0,0,8.643,15.3l-4.907,1.282a57.82,57.82,0,0,1-5.655-10.4l-.067-.157c-.013-.035-.027-.07-.04-.1a2.028,2.028,0,0,0-1.86-1.2,2.235,2.235,0,0,0-.347.028h0a2.011,2.011,0,0,0-1.643,1.587.163.163,0,0,1,0,.033c0,.011,0,.02,0,.031l-.013.092c0,.031-.007.061-.007.092a.161.161,0,0,0,0,.033c0,.015,0,.031,0,.048a37.04,37.04,0,0,0,.175,9.348h-4.817a56.97,56.97,0,0,1-1.52-11.044q-.047-1.146-.047-2.3,0-1.995.134-3.957a57.136,57.136,0,0,1,6.1-22.061l.045.011,2.2.574,1.4.365q-.8,1.667-1.441,3.417a36.986,36.986,0,0,0-2.167,10.523c-.031.522-.049,1.048-.058,1.577v.048c0,.031,0,.059,0,.09V46.9a2.4,2.4,0,0,0,.585,1.509,2.529,2.529,0,0,0,1.934.884,2.473,2.473,0,0,0,.4-.033,2.339,2.339,0,0,0,.41-.1,2.311,2.311,0,0,0,.386-.164l.011-.007c.2-.083.39-.17.583-.258a60.345,60.345,0,0,0,13.108-8l1.8,3.044A60.272,60.272,0,0,1,254.214,53.6" transform="translate(-187.828 -23.638)" fill="#121212"/>
    <path id="Path_13" data-name="Path 13" d="M295.657,61.971a2.458,2.458,0,0,1-2.143,2.411,2.431,2.431,0,0,1-.359.026,2.439,2.439,0,1,1,2.5-2.572c0,.044,0,.09,0,.135" transform="translate(-225.503 -46.533)" fill="#121212"/>
    <path id="Path_14" data-name="Path 14" d="M285.068,116.152a2.31,2.31,0,0,1-.386.164c.058-.024.117-.048.175-.074.038-.015.074-.031.112-.048s.067-.028.1-.041" transform="translate(-220.872 -90.789)" fill="#040504"/>
    <path id="Path_15" data-name="Path 15" d="M269.832,166.492l-.02.183c0-.031,0-.061.007-.092l.013-.092" transform="translate(-209.335 -130.137)" fill="#040504"/>
    <path id="Path_16" data-name="Path 16" d="M365.543,135.094a39.014,39.014,0,0,1-.984,8.739c0,.022-.009.044-.013.063a7.293,7.293,0,0,1-6.471,5.483c-.224.02-.451.031-.679.031a7.454,7.454,0,0,1-1.089-.079,7.27,7.27,0,0,1-6.133-5.756c-.013-.076-.027-.155-.04-.234a39.423,39.423,0,0,1-.04-13.479h4.6a39.4,39.4,0,0,0-.554,5.972c0,.214,0,.426,0,.64,0,.932.033,1.85.1,2.769.351,3.6,5.9,3.64,6.31.052a39.445,39.445,0,0,0,0-8.4h4.774a39.33,39.33,0,0,1,.224,4.2" transform="translate(-271.186 -101.506)" fill="#121212"/>
    <path id="Path_17" data-name="Path 17" d="M461.907,73.619A12.358,12.358,0,0,0,452.3,84.268c-.011.107-.02.212-.029.319q-.269,2.879-.334,5.813-.024.927-.022,1.86,0,2.139.108,4.251.067,1.274.17,2.542H448c-.148-.2-.291-.4-.435-.594a83.354,83.354,0,0,1-7.9-13.3,82.327,82.327,0,0,0,1.311,13.9H435.9a82.9,82.9,0,0,1,.482-21.844c.043-.275.085-.55.132-.823h3.618a82.949,82.949,0,0,0,7.339,13.853,82.179,82.179,0,0,1,1.033-10.2l.061-.367a12.254,12.254,0,0,1,6.052-8.389,12.7,12.7,0,0,1,6.191-1.651Z" transform="translate(-337.808 -54.427)" fill="#121212"/>
    <line id="Line_1" data-name="Line 1" x1="0.04" transform="translate(102.328 21.958)" fill="#040504"/>
    <path id="Path_18" data-name="Path 18" d="M691.682,95.625c-.018.083-.036.164-.052.247l-.108-.247Z" transform="translate(-536.521 -74.745)" fill="#040504"/>
    <path id="Path_19" data-name="Path 19" d="M725.17,95.469h-.027a.356.356,0,0,1,.018-.044c0,.015.007.028.009.044" transform="translate(-562.605 -74.588)" fill="#040504"/>
    <path id="Path_20" data-name="Path 20" d="M725.17,95.469h-.027a.356.356,0,0,1,.018-.044c0,.015.007.028.009.044" transform="translate(-562.605 -74.588)" fill="#040504"/>
    <path id="Path_21" data-name="Path 21" d="M691.682,95.625c-.018.083-.036.164-.052.247l-.108-.247Z" transform="translate(-536.521 -74.745)" fill="#040504"/>
    <path id="Path_22" data-name="Path 22" d="M725.17,95.469h-.027a.356.356,0,0,1,.018-.044c0,.015.007.028.009.044" transform="translate(-562.605 -74.588)" fill="#040504"/>
    <path id="Path_23" data-name="Path 23" d="M691.682,95.625c-.018.083-.036.164-.052.247l-.108-.247Z" transform="translate(-536.521 -74.745)" fill="#040504"/>
    <path id="Path_24" data-name="Path 24" d="M725.17,95.469h-.027a.356.356,0,0,1,.018-.044c0,.015.007.028.009.044" transform="translate(-562.605 -74.588)" fill="#040504"/>
    <path id="Path_25" data-name="Path 25" d="M678.929,120.823q-2.834-.183-5.691-.279a122.829,122.829,0,0,0-1.145-15.979q-1.8,3.878-3.333,7.9c-.24.622-.471,1.247-.7,1.873h-2.425q-.41-1.133-.843-2.253-1.493-3.871-3.237-7.616a122.63,122.63,0,0,0-1.159,16.071q-2.858.092-5.693.271a122.129,122.129,0,0,1,2.6-24.637c.036-.181.076-.362.114-.544h5.534l.108.247q2.027,4.766,3.66,9.723,1.671-5.083,3.768-9.97h5.718c.045.21.09.417.132.627a122.155,122.155,0,0,1,2.587,24.572" transform="translate(-507.954 -74.745)" fill="#121212"/>
    <path id="Path_26" data-name="Path 26" d="M725.17,95.469h-.027a.356.356,0,0,1,.018-.044c0,.015.007.028.009.044" transform="translate(-562.605 -74.588)" fill="#040504"/>
    <line id="Line_2" data-name="Line 2" x1="0.159" transform="translate(155.002 20.88)" fill="#040504"/>
    <path id="Path_27" data-name="Path 27" d="M1168.75,104.925h-4.272a75.224,75.224,0,0,0-8.791,21.639l5.359,1.4a74.448,74.448,0,0,1,1.728-7.966h6.951l3.772,8.453,5.146-1.343Zm-4.882,11.457q.868-2.64,1.928-5.193l2.316,5.193Z" transform="translate(-896.644 -82.014)" fill="#121212"/>
    <path id="Path_28" data-name="Path 28" d="M1213.9,104.862h-.018a.044.044,0,0,1,.009-.017Z" transform="translate(-941.799 -81.951)" fill="#ea4858"/>
    <path id="Path_29" data-name="Path 29" d="M1213.9,104.845l.009.017h-.018a.044.044,0,0,1,.009-.017" transform="translate(-941.799 -81.951)" fill="#ea4858"/>
    <path id="Path_30" data-name="Path 30" d="M143.846,113.856h-4.272a75.226,75.226,0,0,0-8.791,21.639l5.359,1.4a74.433,74.433,0,0,1,1.728-7.966h6.951l3.772,8.453,5.146-1.343Zm-4.882,11.457q.867-2.64,1.928-5.193l2.315,5.193Z" transform="translate(-101.468 -88.995)" fill="#121212"/>
    <path id="Path_31" data-name="Path 31" d="M189,113.793h-.018a.043.043,0,0,1,.009-.017Z" transform="translate(-146.623 -88.932)" fill="#ffea49"/>
    <path id="Path_32" data-name="Path 32" d="M188.992,113.776l.009.017h-.018a.043.043,0,0,1,.009-.017" transform="translate(-146.623 -88.932)" fill="#ffea49"/>
    <path id="Path_33" data-name="Path 33" d="M541.52,106.321h-4.272a75.227,75.227,0,0,0-8.791,21.639l5.359,1.4a74.417,74.417,0,0,1,1.728-7.966H542.5l3.772,8.453,5.146-1.343Zm-4.882,11.457q.867-2.64,1.928-5.192l2.315,5.192Z" transform="translate(-410.005 -83.105)" fill="#121212"/>
    <path id="Path_34" data-name="Path 34" d="M586.675,106.258h-.018a.044.044,0,0,1,.009-.017Z" transform="translate(-455.16 -83.043)" fill="#ea4858"/>
    <path id="Path_35" data-name="Path 35" d="M586.666,106.241l.009.017h-.018a.044.044,0,0,1,.009-.017" transform="translate(-455.16 -83.043)" fill="#ea4858"/>
    <path id="Path_36" data-name="Path 36" d="M965.147,102.693h-4.272a75.227,75.227,0,0,0-8.791,21.639l5.359,1.4a74.433,74.433,0,0,1,1.728-7.966h6.951l3.772,8.453,5.146-1.343Zm-4.882,11.457q.867-2.64,1.928-5.193l2.315,5.193Z" transform="translate(-738.678 -80.269)" fill="#121212"/>
    <path id="Path_37" data-name="Path 37" d="M1010.3,102.63h-.018a.043.043,0,0,1,.009-.017Z" transform="translate(-783.833 -80.207)" fill="#4976ba"/>
    <path id="Path_38" data-name="Path 38" d="M1010.293,102.613l.009.017h-.018a.043.043,0,0,1,.009-.017" transform="translate(-783.833 -80.207)" fill="#4976ba"/>
    <path id="Path_39" data-name="Path 39" d="M780.961,102.693h-4.272a75.226,75.226,0,0,0-8.791,21.639l5.359,1.4a74.433,74.433,0,0,1,1.728-7.966h6.951l3.772,8.453,5.146-1.343Zm-4.882,11.457q.867-2.64,1.928-5.193l2.315,5.193Z" transform="translate(-595.777 -80.269)" fill="#121212"/>
    <path id="Path_40" data-name="Path 40" d="M826.116,102.63H826.1a.044.044,0,0,1,.009-.017Z" transform="translate(-640.931 -80.207)" fill="#f16944"/>
    <path id="Path_41" data-name="Path 41" d="M826.107,102.613l.009.017H826.1a.044.044,0,0,1,.009-.017" transform="translate(-640.931 -80.207)" fill="#f16944"/>
    <line id="Line_3" data-name="Line 3" x1="0.009" y1="0.017" transform="translate(262.115 22.894)" fill="#040504"/>
    <path id="Path_42" data-name="Path 42" d="M875.116,107.69a12.846,12.846,0,0,1-1.809,6.583,13.553,13.553,0,0,1-11.075,6.57c-.209.011-.419.015-.632.015a13.824,13.824,0,0,1-3-.325v-13.7h3.629v9.623l.09-.015.226-.041c.027,0,.054-.009.078-.015.085-.017.173-.035.258-.055l.168-.039a8.824,8.824,0,0,0,4.877-3.208s0,0,0-.007a8.384,8.384,0,0,0,.558-9.337,8.782,8.782,0,0,0-5.588-4.081l-.117-.026c-.085-.02-.17-.037-.256-.05-.06-.013-.121-.024-.182-.035a14.021,14.021,0,0,0-2.439-.214,13.772,13.772,0,0,0-5.095.967L852.45,98a13.614,13.614,0,0,1,6.148-3.151,14,14,0,0,1,3-.325,13.582,13.582,0,0,1,11.557,6.337,0,0,0,0,1,0,0,12.855,12.855,0,0,1,1.957,6.828" transform="translate(-661.376 -73.883)" fill="#121212"/>
    <path id="Path_43" data-name="Path 43" d="M1069.838,107.69a12.847,12.847,0,0,1-1.809,6.583,13.553,13.553,0,0,1-11.075,6.57c-.208.011-.419.015-.632.015a13.823,13.823,0,0,1-3-.325v-13.7h3.629v9.623l.09-.015.226-.041c.027,0,.054-.009.078-.015.085-.017.173-.035.258-.055l.168-.039a8.824,8.824,0,0,0,4.878-3.208s0,0,0-.007a8.384,8.384,0,0,0,.558-9.337,8.783,8.783,0,0,0-5.588-4.081l-.117-.026c-.085-.02-.17-.037-.255-.05-.06-.013-.121-.024-.182-.035a14.022,14.022,0,0,0-2.439-.214,13.773,13.773,0,0,0-5.095.967l-2.365-2.3a13.613,13.613,0,0,1,6.148-3.151,14,14,0,0,1,3-.325,13.582,13.582,0,0,1,11.557,6.337,0,0,0,0,1,0,0,12.854,12.854,0,0,1,1.957,6.828" transform="translate(-812.452 -73.883)" fill="#121212"/>
    <path id="Path_44" data-name="Path 44" d="M1194.664,76.613c1.9-3.2-2.711-3.2-.813,0-1.9-3.2-4.2.686-.406.686-3.8,0-1.491,3.888.406.686-1.9,3.2,2.711,3.2.813,0,1.9,3.2,4.2-.686.407-.686,3.8,0,1.491-3.888-.407-.686" transform="translate(-924.353 -58.007)" fill="#121212"/>
  </g>
</svg>
