<svg xmlns="http://www.w3.org/2000/svg" xmlns:xlink="http://www.w3.org/1999/xlink" width="384" height="68" viewBox="0 0 384 68">
  <defs>
    <clipPath id="clip-path">
      <rect id="Rectangle_1" data-name="Rectangle 1" width="384" height="68" transform="translate(0 0.043)" fill="none"/>
    </clipPath>
  </defs>
  <g id="Group_5" data-name="Group 5" transform="translate(0 -0.043)">
    <g id="Group_1" data-name="Group 1" clip-path="url(#clip-path)">
      <path id="Path_1" data-name="Path 1" d="M33.388,84.289a89.2,89.2,0,0,0,.455,9.03L24.5,95.757q-.311-3.7-.311-7.487a89.054,89.054,0,0,1,1.578-16.74l-13.6,3.547A93.942,93.942,0,0,0,11.073,89.4q0,4.46.412,8.822L.027,95.231Q0,94.143,0,93.049a93.641,93.641,0,0,1,14.229-49.7h8.912a93.721,93.721,0,0,0-9.669,24.92l13.894-3.627a89.057,89.057,0,0,1,3.425-10.053h7.682a88.8,88.8,0,0,0-5.085,29.7" transform="translate(0 -30.458)" fill="#f16944"/>
      <path id="Path_2" data-name="Path 2" d="M59.531,4.231a4.293,4.293,0,0,1-4.346,4.234q-.142,0-.284-.009a4.281,4.281,0,0,1-4.059-4.225A4.288,4.288,0,0,1,55.184,0a4.337,4.337,0,0,1,4.13,2.911,4.106,4.106,0,0,1,.217,1.32" transform="translate(-35.323)" fill="#4976ba"/>
      <path id="Path_3" data-name="Path 3" d="M112.144,58.885a2.1,2.1,0,1,1,2.1,2.047,2.074,2.074,0,0,1-2.1-2.047" transform="translate(-77.915 -39.938)" fill="#c05098"/>
      <path id="Path_4" data-name="Path 4" d="M285.207,116.152a3.147,3.147,0,0,1-.525.223c.079-.033.159-.065.238-.1.052-.021.1-.042.153-.065s.092-.039.134-.056" transform="translate(-197.791 -81.616)" fill="#040504"/>
      <path id="Path_5" data-name="Path 5" d="M269.821,166.617l.018-.125-.027.25c0-.042.006-.083.009-.125" transform="translate(-187.46 -116.988)" fill="#040504"/>
      <path id="Path_6" data-name="Path 6" d="M269.912,29.856c.031-.056.058-.11.085-.164-.009.059-.018.119-.024.178Z" transform="translate(-187.529 -20.863)" fill="#040504"/>
      <path id="Path_7" data-name="Path 7" d="M270,29.692c-.009.059-.018.119-.024.178l-.061-.015c.031-.056.058-.11.085-.164" transform="translate(-187.529 -20.863)" fill="#040504"/>
      <path id="Path_8" data-name="Path 8" d="M274.811,55.456c-.052.024-.1.045-.153.065-.079.036-.159.068-.238.1a3.146,3.146,0,0,0,.525-.223c-.043.018-.089.039-.134.056m0,0c-.052.024-.1.045-.153.065-.079.036-.159.068-.238.1a3.146,3.146,0,0,0,.525-.223c-.043.018-.089.039-.134.056m-4.9-25.6.061.015c.006-.059.015-.119.024-.178-.027.054-.055.107-.085.164m4.9,25.6c-.052.024-.1.045-.153.065-.079.036-.159.068-.238.1a3.146,3.146,0,0,0,.525-.223c-.043.018-.089.039-.134.056m0,0c-.052.024-.1.045-.153.065-.079.036-.159.068-.238.1a3.146,3.146,0,0,0,.525-.223c-.043.018-.089.039-.134.056m0,0c-.052.024-.1.045-.153.065-.079.036-.159.068-.238.1a3.146,3.146,0,0,0,.525-.223c-.043.018-.089.039-.134.056" transform="translate(-187.529 -20.863)" fill="#040504"/>
      <path id="Path_9" data-name="Path 9" d="M285.207,116.152a3.147,3.147,0,0,1-.525.223c.079-.033.159-.065.238-.1.052-.021.1-.042.153-.065s.092-.039.134-.056" transform="translate(-197.791 -81.616)" fill="#040504"/>
      <path id="Path_10" data-name="Path 10" d="M285.207,116.152a3.147,3.147,0,0,1-.525.223c.079-.033.159-.065.238-.1.052-.021.1-.042.153-.065s.092-.039.134-.056" transform="translate(-197.791 -81.616)" fill="#040504"/>
      <path id="Path_11" data-name="Path 11" d="M285.207,116.152a3.147,3.147,0,0,1-.525.223c.079-.033.159-.065.238-.1.052-.021.1-.042.153-.065s.092-.039.134-.056" transform="translate(-197.791 -81.616)" fill="#040504"/>
      <path id="Path_12" data-name="Path 12" d="M258.6,62.045a79.017,79.017,0,0,0,11.769,20.831l-6.681,1.745a78.734,78.734,0,0,1-7.7-14.168l-.092-.214c-.018-.048-.037-.1-.055-.14a2.761,2.761,0,0,0-2.533-1.632,3.043,3.043,0,0,0-.473.039h0a2.738,2.738,0,0,0-2.237,2.162.222.222,0,0,1-.006.045c0,.015,0,.027-.006.042l-.018.125c0,.042-.009.083-.009.125a.219.219,0,0,0,0,.045c0,.021,0,.042,0,.065a50.435,50.435,0,0,0,.238,12.729h-6.559A77.577,77.577,0,0,1,242.156,68.8q-.064-1.561-.064-3.134,0-2.716.183-5.388a77.8,77.8,0,0,1,8.308-30.04l.061.015,3,.782,1.908.5q-1.094,2.27-1.963,4.653a50.364,50.364,0,0,0-2.951,14.329c-.043.711-.067,1.427-.079,2.147v.065c0,.042,0,.08,0,.122v.08a3.267,3.267,0,0,0,.8,2.055,3.444,3.444,0,0,0,2.634,1.2,3.368,3.368,0,0,0,.549-.045,3.185,3.185,0,0,0,.559-.137,3.148,3.148,0,0,0,.525-.223.067.067,0,0,0,.015-.009c.269-.113.531-.232.794-.351a82.171,82.171,0,0,0,17.849-10.894l2.454,4.145A82.072,82.072,0,0,1,258.6,62.045" transform="translate(-168.201 -21.25)" fill="#ea4858"/>
      <path id="Path_13" data-name="Path 13" d="M297.468,62.853a3.347,3.347,0,0,1-2.918,3.283,3.309,3.309,0,0,1-.488.036,3.321,3.321,0,1,1,3.4-3.5c0,.059,0,.122,0,.184" transform="translate(-201.939 -41.831)" fill="#f16944"/>
      <path id="Path_14" data-name="Path 14" d="M285.207,116.152a3.147,3.147,0,0,1-.525.223c.079-.033.159-.065.238-.1.052-.021.1-.042.153-.065s.092-.039.134-.056" transform="translate(-197.791 -81.616)" fill="#040504"/>
      <path id="Path_15" data-name="Path 15" d="M269.839,166.492l-.027.25c0-.042.006-.083.009-.125l.018-.125" transform="translate(-187.46 -116.988)" fill="#040504"/>
      <path id="Path_16" data-name="Path 16" d="M371.334,136.986a53.124,53.124,0,0,1-1.34,11.9c-.006.03-.012.059-.018.086a9.931,9.931,0,0,1-8.812,7.466c-.305.027-.613.042-.925.042a10.149,10.149,0,0,1-1.483-.107,9.9,9.9,0,0,1-8.351-7.838c-.018-.1-.037-.211-.055-.318a53.681,53.681,0,0,1-.055-18.355h6.269a53.652,53.652,0,0,0-.754,8.132c0,.291-.006.58-.006.871,0,1.268.045,2.519.131,3.77.478,4.9,8.031,4.956,8.592.071a53.714,53.714,0,0,0,0-11.435h6.5a53.557,53.557,0,0,1,.305,5.715" transform="translate(-242.848 -91.249)" fill="#c05098"/>
      <path id="Path_17" data-name="Path 17" d="M471.494,75.061a16.828,16.828,0,0,0-13.082,14.5c-.015.146-.027.288-.04.434q-.366,3.92-.455,7.915-.032,1.262-.031,2.533,0,2.912.146,5.789.092,1.735.232,3.461h-5.714c-.2-.268-.4-.538-.592-.809A113.5,113.5,0,0,1,441.2,90.77a112.1,112.1,0,0,0,1.786,18.925h-6.9a112.881,112.881,0,0,1,.656-29.745c.058-.375.116-.749.18-1.121h4.926a112.956,112.956,0,0,0,9.993,18.863A111.912,111.912,0,0,1,453.248,83.8l.082-.5a16.686,16.686,0,0,1,8.241-11.424A17.3,17.3,0,0,1,470,69.632Z" transform="translate(-302.508 -48.928)" fill="#4976ba"/>
      <line id="Line_1" data-name="Line 1" x1="0.055" transform="translate(139.34 29.901)" fill="#040504"/>
      <path id="Path_18" data-name="Path 18" d="M691.74,95.625c-.024.113-.049.223-.07.336-.049-.113-.1-.223-.146-.336Z" transform="translate(-480.456 -67.192)" fill="#040504"/>
      <path id="Path_19" data-name="Path 19" d="M725.18,95.484h-.037a.478.478,0,0,1,.024-.059c0,.021.009.039.012.059" transform="translate(-503.814 -67.052)" fill="#040504"/>
      <path id="Path_20" data-name="Path 20" d="M725.18,95.484h-.037a.478.478,0,0,1,.024-.059c0,.021.009.039.012.059" transform="translate(-503.814 -67.052)" fill="#040504"/>
      <path id="Path_21" data-name="Path 21" d="M691.74,95.625c-.024.113-.049.223-.07.336-.049-.113-.1-.223-.146-.336Z" transform="translate(-480.456 -67.192)" fill="#040504"/>
      <path id="Path_22" data-name="Path 22" d="M725.18,95.484h-.037a.478.478,0,0,1,.024-.059c0,.021.009.039.012.059" transform="translate(-503.814 -67.052)" fill="#040504"/>
      <path id="Path_23" data-name="Path 23" d="M691.74,95.625c-.024.113-.049.223-.07.336-.049-.113-.1-.223-.146-.336Z" transform="translate(-480.456 -67.192)" fill="#040504"/>
      <path id="Path_24" data-name="Path 24" d="M725.18,95.484h-.037a.478.478,0,0,1,.024-.059c0,.021.009.039.012.059" transform="translate(-503.814 -67.052)" fill="#040504"/>
      <path id="Path_25" data-name="Path 25" d="M687.691,129.938q-3.859-.25-7.75-.381a167.251,167.251,0,0,0-1.56-21.759q-2.454,5.281-4.539,10.752c-.327.847-.641,1.7-.952,2.551h-3.3q-.559-1.543-1.148-3.068-2.032-5.272-4.407-10.371a166.976,166.976,0,0,0-1.578,21.884q-3.892.125-7.753.369a166.3,166.3,0,0,1,3.547-33.548c.049-.247.1-.494.156-.74h7.536c.049.113.1.223.146.336q2.761,6.489,4.984,13.24,2.275-6.922,5.131-13.576h7.786c.061.285.122.568.18.853a166.333,166.333,0,0,1,3.522,33.459" transform="translate(-454.874 -67.192)" fill="#c05098"/>
      <path id="Path_26" data-name="Path 26" d="M725.18,95.484h-.037a.478.478,0,0,1,.024-.059c0,.021.009.039.012.059" transform="translate(-503.814 -67.052)" fill="#040504"/>
      <line id="Line_2" data-name="Line 2" x1="0.217" transform="translate(211.067 28.433)" fill="#040504"/>
      <path id="Path_27" data-name="Path 27" d="M1173.475,104.925h-5.817a102.427,102.427,0,0,0-11.971,29.466l7.3,1.906a101.365,101.365,0,0,1,2.353-10.847h9.465l5.137,11.51,7.008-1.829Zm-6.648,15.6q1.181-3.595,2.625-7.071l3.153,7.071Z" transform="translate(-802.948 -73.727)" fill="#ea4858"/>
      <path id="Path_28" data-name="Path 28" d="M1213.911,104.869h-.024a.058.058,0,0,1,.012-.024Z" transform="translate(-843.384 -73.671)" fill="#ea4858"/>
      <path id="Path_29" data-name="Path 29" d="M1213.9,104.845l.012.024h-.024a.058.058,0,0,1,.012-.024" transform="translate(-843.384 -73.671)" fill="#ea4858"/>
      <path id="Path_30" data-name="Path 30" d="M148.571,113.856h-5.818a102.435,102.435,0,0,0-11.971,29.466l7.3,1.906a101.356,101.356,0,0,1,2.353-10.847H149.9l5.137,11.51,7.008-1.829Zm-6.648,15.6q1.181-3.595,2.625-7.071l3.153,7.071Z" transform="translate(-90.865 -80.002)" fill="#ffc031"/>
      <path id="Path_31" data-name="Path 31" d="M189.007,113.8h-.024a.059.059,0,0,1,.012-.024Z" transform="translate(-131.302 -79.946)" fill="#ffea49"/>
      <path id="Path_32" data-name="Path 32" d="M189,113.776l.012.024h-.024a.059.059,0,0,1,.012-.024" transform="translate(-131.302 -79.946)" fill="#ffea49"/>
      <path id="Path_33" data-name="Path 33" d="M546.245,106.321h-5.818a102.438,102.438,0,0,0-11.971,29.466l7.3,1.906a101.363,101.363,0,0,1,2.353-10.847h9.465l5.137,11.51,7.008-1.829Zm-6.648,15.6q1.181-3.595,2.625-7.071l3.153,7.071Z" transform="translate(-367.161 -74.708)" fill="#ea4858"/>
      <path id="Path_34" data-name="Path 34" d="M586.681,106.265h-.024a.06.06,0,0,1,.012-.024Z" transform="translate(-407.597 -74.652)" fill="#ea4858"/>
      <path id="Path_35" data-name="Path 35" d="M586.669,106.241l.012.024h-.024a.06.06,0,0,1,.012-.024" transform="translate(-407.597 -74.652)" fill="#ea4858"/>
      <path id="Path_36" data-name="Path 36" d="M969.872,102.693h-5.818a102.437,102.437,0,0,0-11.971,29.466l7.3,1.906a101.365,101.365,0,0,1,2.353-10.847H971.2l5.137,11.51,7.008-1.829Zm-6.648,15.6q1.181-3.595,2.625-7.071L969,118.294Z" transform="translate(-661.489 -72.159)" fill="#4976ba"/>
      <path id="Path_37" data-name="Path 37" d="M1010.308,102.637h-.024a.058.058,0,0,1,.012-.024Z" transform="translate(-701.925 -72.102)" fill="#4976ba"/>
      <path id="Path_38" data-name="Path 38" d="M1010.3,102.613l.012.024h-.024a.058.058,0,0,1,.012-.024" transform="translate(-701.925 -72.102)" fill="#4976ba"/>
      <path id="Path_39" data-name="Path 39" d="M785.686,102.693h-5.818A102.437,102.437,0,0,0,767.9,132.159l7.3,1.906a101.364,101.364,0,0,1,2.353-10.847h9.465l5.137,11.51,7.008-1.829Zm-6.648,15.6q1.181-3.595,2.625-7.071l3.153,7.071Z" transform="translate(-533.52 -72.159)" fill="#f16944"/>
      <path id="Path_40" data-name="Path 40" d="M826.122,102.637H826.1a.059.059,0,0,1,.012-.024Z" transform="translate(-573.956 -72.102)" fill="#f16944"/>
      <path id="Path_41" data-name="Path 41" d="M826.11,102.613l.012.024H826.1a.059.059,0,0,1,.012-.024" transform="translate(-573.956 -72.102)" fill="#f16944"/>
      <line id="Line_3" data-name="Line 3" x1="0.012" y1="0.024" transform="translate(356.923 31.174)" fill="#040504"/>
      <path id="Path_42" data-name="Path 42" d="M883.314,112.452a17.492,17.492,0,0,1-2.463,8.965,18.455,18.455,0,0,1-15.081,8.947c-.284.015-.571.021-.861.021a18.823,18.823,0,0,1-4.081-.443V111.29h4.942v13.1l.122-.021c.1-.018.2-.039.308-.057.037-.006.073-.012.107-.021.116-.024.235-.048.351-.074l.229-.054a12.015,12.015,0,0,0,6.642-4.368s0-.006,0-.009a11.417,11.417,0,0,0,.76-12.714,11.959,11.959,0,0,0-7.609-5.557l-.159-.036c-.116-.027-.232-.051-.348-.068-.082-.018-.165-.033-.247-.048a19.093,19.093,0,0,0-3.321-.291,18.754,18.754,0,0,0-6.938,1.317l-3.22-3.137a18.539,18.539,0,0,1,8.372-4.291,19.065,19.065,0,0,1,4.087-.443,18.494,18.494,0,0,1,15.737,8.629s0,0,0,0a17.5,17.5,0,0,1,2.665,9.3" transform="translate(-592.265 -66.418)" fill="#ea4858"/>
      <path id="Path_43" data-name="Path 43" d="M1078.036,112.452a17.5,17.5,0,0,1-2.463,8.965,18.456,18.456,0,0,1-15.081,8.947c-.284.015-.571.021-.861.021a18.823,18.823,0,0,1-4.081-.443V111.29h4.941v13.1l.122-.021c.1-.018.2-.039.308-.057.037-.006.073-.012.107-.021.116-.024.235-.048.351-.074l.229-.054a12.015,12.015,0,0,0,6.642-4.368s0-.006,0-.009a11.417,11.417,0,0,0,.76-12.714,11.959,11.959,0,0,0-7.609-5.557l-.159-.036c-.116-.027-.232-.051-.348-.068-.082-.018-.165-.033-.247-.048a19.093,19.093,0,0,0-3.321-.291,18.754,18.754,0,0,0-6.937,1.317l-3.22-3.137a18.539,18.539,0,0,1,8.372-4.291,19.065,19.065,0,0,1,4.087-.443,18.494,18.494,0,0,1,15.737,8.629s0,0,0,0a17.5,17.5,0,0,1,2.665,9.3" transform="translate(-727.554 -66.418)" fill="#ffc031"/>
      <path id="Path_44" data-name="Path 44" d="M1195.844,77.482c2.584-4.36-3.691-4.36-1.107,0-2.584-4.36-5.722.934-.554.934-5.168,0-2.03,5.294.554.934-2.584,4.36,3.691,4.36,1.107,0,2.584,4.36,5.722-.934.554-.934,5.168,0,2.03-5.294-.554-.934" transform="translate(-827.761 -52.146)" fill="#4976ba"/>
    </g>
  </g>
</svg>
